<svg width="14" height="14" viewBox="0 0 14 14" fill="none" xmlns="http://www.w3.org/2000/svg">
<path d="M3.125 13.9883H0.21875V4.64453H3.125V13.9883ZM1.65625 3.39453C0.75 3.39453 0 2.61328 0 1.67578C0 1.08203 0.3125 0.519531 0.8125 0.238281C1.34375 -0.0742188 2 -0.0742188 2.5 0.238281C3.03125 0.519531 3.34375 1.08203 3.34375 1.67578C3.34375 2.61328 2.59375 3.39453 1.65625 3.39453ZM13.9688 13.9883H11.0938V9.45703C11.0938 8.36328 11.0625 6.98828 9.5625 6.98828C8.0625 6.98828 7.84375 8.14453 7.84375 9.36328V13.9883H4.9375V4.64453H7.71875V5.92578H7.75C8.15625 5.20703 9.09375 4.42578 10.5 4.42578C13.4375 4.42578 14 6.36328 14 8.86328V13.9883H13.9688Z" fill="#50FFAF"/>
</svg>
