<svg width="132" height="35" viewBox="0 0 132 35" fill="none" xmlns="http://www.w3.org/2000/svg">
<path d="M44.83 25.2008C44.2352 25.2331 43.6469 25.064 43.16 24.7208C42.9566 24.57 42.7929 24.3719 42.6831 24.1437C42.5733 23.9154 42.5208 23.6639 42.53 23.4108V14.1408C42.5252 14.1016 42.5293 14.0617 42.5422 14.0243C42.555 13.9869 42.5762 13.953 42.6042 13.925C42.6322 13.897 42.6661 13.8758 42.7035 13.863C42.7409 13.8501 42.7808 13.846 42.82 13.8508H44.5C44.69 13.8508 44.78 13.9508 44.78 14.1408V22.6908C44.78 23.0708 44.95 23.2608 45.3 23.2608C45.4484 23.2669 45.5968 23.2501 45.74 23.2108C45.94 23.2108 46.05 23.2708 46.06 23.4508L46.21 24.7008C46.2172 24.7373 46.2165 24.7748 46.208 24.811C46.1995 24.8471 46.1833 24.8811 46.1605 24.9104C46.1378 24.9398 46.109 24.964 46.0762 24.9813C46.0433 24.9986 46.0071 25.0087 45.97 25.0108C45.602 25.1324 45.2175 25.1965 44.83 25.2008Z" fill="#333333"/>
<path d="M54.28 24.1308C53.4359 24.8283 52.375 25.2098 51.28 25.2098C50.185 25.2098 49.1242 24.8283 48.28 24.1308C47.5381 23.3818 47.1218 22.3701 47.1218 21.3158C47.1218 20.2615 47.5381 19.2498 48.28 18.5008C49.1258 17.8069 50.186 17.4277 51.28 17.4277C52.374 17.4277 53.4342 17.8069 54.28 18.5008C55.0049 19.2567 55.4096 20.2635 55.4096 21.3108C55.4096 22.3581 55.0049 23.3649 54.28 24.1208V24.1308ZM49.86 22.8108C50.2518 23.1657 50.7614 23.3622 51.29 23.3622C51.8186 23.3622 52.3283 23.1657 52.72 22.8108C53.0746 22.4032 53.2698 21.8811 53.2698 21.3408C53.2698 20.8006 53.0746 20.2785 52.72 19.8708C52.3283 19.516 51.8186 19.3194 51.29 19.3194C50.7614 19.3194 50.2518 19.516 49.86 19.8708C49.5055 20.2785 49.3102 20.8006 49.3102 21.3408C49.3102 21.8811 49.5055 22.4032 49.86 22.8108Z" fill="#333333"/>
<path d="M64.6599 17.6807C64.8499 17.6807 64.9399 17.7807 64.9399 17.9707V25.1407C64.9574 25.6247 64.8668 26.1064 64.6748 26.5509C64.4828 26.9955 64.1942 27.3917 63.8299 27.7107C63.0213 28.4002 61.9815 28.7575 60.9199 28.7107C59.9611 28.7444 59.015 28.4826 58.2099 27.9607C57.8661 27.735 57.5724 27.4409 57.3471 27.0969C57.1217 26.7528 56.9695 26.3661 56.8999 25.9607C56.8999 25.7607 56.8999 25.6707 57.1699 25.6707H58.8499C58.9212 25.6731 58.9904 25.6962 59.0489 25.737C59.1075 25.7778 59.153 25.8346 59.1799 25.9007C59.2889 26.2044 59.5061 26.4573 59.7899 26.6107C60.1358 26.7892 60.5208 26.8786 60.9099 26.8707C61.1447 26.8836 61.3797 26.8495 61.6012 26.7705C61.8227 26.6916 62.0262 26.5692 62.1999 26.4107C62.3586 26.2449 62.482 26.0486 62.5628 25.8338C62.6436 25.619 62.68 25.39 62.6699 25.1607V24.5307C62.0684 24.9731 61.3363 25.2019 60.5899 25.1807C60.0675 25.1997 59.5467 25.113 59.0586 24.9257C58.5706 24.7383 58.1255 24.4544 57.7499 24.0907C57.029 23.3449 56.626 22.3481 56.626 21.3107C56.626 20.2734 57.029 19.2766 57.7499 18.5307C58.1273 18.1703 58.573 17.8891 59.0607 17.7036C59.5485 17.5181 60.0684 17.4321 60.5899 17.4507C61.3579 17.4304 62.1097 17.674 62.7199 18.1407V17.9807C62.7153 17.9424 62.7193 17.9035 62.7316 17.8669C62.7439 17.8304 62.7642 17.797 62.791 17.7692C62.8178 17.7414 62.8505 17.72 62.8866 17.7064C62.9228 17.6928 62.9615 17.6875 62.9999 17.6907L64.6599 17.6807ZM60.7799 23.4007C61.0375 23.4087 61.2938 23.36 61.5305 23.258C61.7672 23.1561 61.9787 23.0034 62.1499 22.8107C62.4824 22.3814 62.6628 21.8537 62.6628 21.3107C62.6628 20.7677 62.4824 20.2401 62.1499 19.8107C61.9793 19.6207 61.7691 19.4702 61.5342 19.37C61.2992 19.2698 61.0452 19.2223 60.7899 19.2307C60.5293 19.2225 60.2701 19.271 60.0301 19.3729C59.7901 19.4748 59.5751 19.6276 59.3999 19.8207C59.0316 20.2314 58.8379 20.7695 58.8599 21.3207C58.8419 21.8665 59.0313 22.3989 59.3899 22.8107C59.5655 23.0033 59.7806 23.1558 60.0205 23.2576C60.2604 23.3594 60.5194 23.4082 60.7799 23.4007Z" fill="#333333"/>
<path d="M73.57 24.1309C72.7242 24.8248 71.664 25.204 70.57 25.204C69.476 25.204 68.4158 24.8248 67.57 24.1309C66.8445 23.3733 66.4395 22.3649 66.4395 21.3159C66.4395 20.267 66.8445 19.2585 67.57 18.5009C68.4166 17.8088 69.4765 17.4307 70.57 17.4307C71.6635 17.4307 72.7234 17.8088 73.57 18.5009C74.2949 19.2568 74.6996 20.2636 74.6996 21.3109C74.6996 22.3582 74.2949 23.365 73.57 24.1209V24.1309ZM69.14 22.8109C69.3317 22.9933 69.5577 23.1358 69.8049 23.2302C70.0521 23.3246 70.3155 23.3691 70.58 23.3609C70.8428 23.3677 71.1044 23.3227 71.3498 23.2283C71.5952 23.1339 71.8195 22.9921 72.01 22.8109C72.3588 22.4005 72.5503 21.8795 72.5503 21.3409C72.5503 20.8023 72.3588 20.2813 72.01 19.8709C71.8195 19.6898 71.5952 19.5479 71.3498 19.4536C71.1044 19.3592 70.8428 19.3141 70.58 19.3209C70.3155 19.3128 70.0521 19.3572 69.8049 19.4516C69.5577 19.546 69.3317 19.6886 69.14 19.8709C68.7913 20.2813 68.5998 20.8023 68.5998 21.3409C68.5998 21.8795 68.7913 22.4005 69.14 22.8109Z" fill="#333333"/>
<path d="M78.31 15.9809C78.0457 16.2123 77.7063 16.3398 77.355 16.3398C77.0037 16.3398 76.6644 16.2123 76.4 15.9809C76.2802 15.8678 76.1847 15.7314 76.1194 15.5801C76.0542 15.4288 76.0205 15.2657 76.0205 15.1009C76.0205 14.9361 76.0542 14.7731 76.1194 14.6217C76.1847 14.4704 76.2802 14.334 76.4 14.2209C76.6671 13.9953 77.0054 13.8716 77.355 13.8716C77.7046 13.8716 78.0429 13.9953 78.31 14.2209C78.4299 14.334 78.5254 14.4704 78.5906 14.6217C78.6559 14.7731 78.6895 14.9361 78.6895 15.1009C78.6895 15.2657 78.6559 15.4288 78.5906 15.5801C78.5254 15.7314 78.4299 15.8678 78.31 15.9809ZM78.52 25.2009C77.9256 25.2301 77.3383 25.0613 76.85 24.7209C76.6497 24.5679 76.4888 24.3691 76.381 24.1412C76.2731 23.9133 76.2213 23.6629 76.23 23.4109V17.9709C76.2252 17.9317 76.2293 17.8918 76.2422 17.8544C76.255 17.817 76.2762 17.7831 76.3042 17.7551C76.3322 17.7271 76.3661 17.7059 76.4035 17.6931C76.4409 17.6802 76.4808 17.6761 76.52 17.6809H78.2C78.39 17.6809 78.48 17.7809 78.48 17.9709V22.6909C78.48 23.0709 78.65 23.2609 78.99 23.2609C79.1417 23.2664 79.2933 23.2495 79.44 23.2109C79.64 23.2109 79.75 23.2709 79.76 23.4509L79.91 24.7009C79.9172 24.7374 79.9165 24.7749 79.908 24.8111C79.8995 24.8472 79.8833 24.8812 79.8605 24.9105C79.8378 24.9399 79.809 24.9641 79.7762 24.9814C79.7433 24.9987 79.7071 25.0088 79.67 25.0109C79.2988 25.1332 78.9109 25.1973 78.52 25.2009Z" fill="#333333"/>
<path d="M86.0901 17.4408C86.6149 17.4201 87.1384 17.505 87.6297 17.6905C88.121 17.8761 88.5701 18.1584 88.9501 18.5208C89.6573 19.2798 90.0505 20.2785 90.0505 21.3158C90.0505 22.3531 89.6573 23.3519 88.9501 24.1108C88.5719 24.4765 88.1234 24.7616 87.6318 24.9489C87.1402 25.1363 86.6158 25.222 86.0901 25.2008C85.3413 25.2175 84.6074 24.9893 84.0001 24.5508V28.1608C84.0001 28.3508 83.9001 28.4408 83.7101 28.4408H82.0301C81.9918 28.448 81.9523 28.4457 81.915 28.4342C81.8778 28.4226 81.8439 28.4022 81.8163 28.3746C81.7888 28.347 81.7683 28.3132 81.7568 28.2759C81.7452 28.2387 81.743 28.1992 81.7501 28.1608V19.9608C81.7619 19.8806 81.7547 19.7988 81.7293 19.7218C81.7038 19.6449 81.6606 19.5749 81.6033 19.5176C81.546 19.4603 81.4761 19.4172 81.3991 19.3917C81.3222 19.3662 81.2403 19.3591 81.1601 19.3708H80.8301C80.6101 19.3708 80.5001 19.2908 80.5001 19.1308V17.9508C80.4949 17.8778 80.5149 17.8052 80.5568 17.7452C80.5986 17.6851 80.6598 17.6412 80.7301 17.6208C81.076 17.4951 81.4421 17.4341 81.8101 17.4408C82.1771 17.4083 82.5454 17.4862 82.8679 17.6643C83.1903 17.8425 83.4523 18.1129 83.6201 18.4408C83.9422 18.115 84.3274 17.8583 84.7521 17.6863C85.1768 17.5144 85.6321 17.4308 86.0901 17.4408ZM84.5301 22.8108C84.7084 22.9972 84.9226 23.1455 85.1598 23.2468C85.397 23.3481 85.6522 23.4003 85.9101 23.4003C86.168 23.4003 86.4233 23.3481 86.6604 23.2468C86.8976 23.1455 87.1118 22.9972 87.2901 22.8108C87.6657 22.3919 87.863 21.843 87.8401 21.2808C87.8663 20.7182 87.6685 20.168 87.2901 19.7508C87.1118 19.5645 86.8976 19.4162 86.6604 19.3149C86.4233 19.2135 86.168 19.1613 85.9101 19.1613C85.6522 19.1613 85.397 19.2135 85.1598 19.3149C84.9226 19.4162 84.7084 19.5645 84.5301 19.7508C84.1663 20.1754 83.9769 20.7221 84.0001 21.2808C83.9798 21.8391 84.1689 22.3848 84.5301 22.8108Z" fill="#333333"/>
<path d="M94.77 25.2007C93.8723 25.2376 92.9822 25.0229 92.2 24.5807C91.8862 24.3917 91.619 24.1344 91.4181 23.828C91.2173 23.5216 91.0881 23.1739 91.04 22.8107C91.04 22.6107 91.11 22.5107 91.33 22.5107H92.8C92.8699 22.5135 92.9378 22.5354 92.996 22.5743C93.0542 22.6131 93.1006 22.6672 93.13 22.7307C93.34 23.2707 93.89 23.5407 94.77 23.5407C95.077 23.5548 95.3826 23.4929 95.66 23.3607C95.7558 23.3175 95.8379 23.2491 95.8978 23.1628C95.9577 23.0765 95.993 22.9755 96 22.8707C96 22.6107 95.84 22.4307 95.52 22.3107C95.1405 22.1844 94.7481 22.1005 94.35 22.0607C93.8785 22.0073 93.4109 21.9238 92.95 21.8107C92.5018 21.7093 92.0943 21.4759 91.78 21.1407C91.5949 20.9129 91.4587 20.6494 91.3797 20.3667C91.3008 20.084 91.2809 19.788 91.3212 19.4973C91.3616 19.2065 91.4613 18.9271 91.6142 18.6766C91.7671 18.426 91.9699 18.2096 92.21 18.0407C92.9308 17.5816 93.7765 17.3579 94.63 17.4007C95.4564 17.3728 96.274 17.5772 96.99 17.9907C97.2786 18.1542 97.527 18.3799 97.7173 18.6515C97.9076 18.9231 98.0349 19.2337 98.09 19.5607C98.09 19.7607 98 19.8607 97.82 19.8607H96.34C96.2777 19.8644 96.2157 19.8492 96.1622 19.8171C96.1087 19.785 96.0661 19.7374 96.04 19.6807C95.9411 19.4439 95.7549 19.2541 95.52 19.1507C95.255 19.0121 94.959 18.9432 94.66 18.9507C94.3669 18.9348 94.0745 18.9933 93.81 19.1207C93.7168 19.1567 93.6366 19.2197 93.5795 19.3017C93.5225 19.3837 93.4913 19.4809 93.49 19.5807C93.4964 19.7175 93.5465 19.8486 93.6329 19.9548C93.7193 20.061 93.8374 20.1366 93.97 20.1707C94.354 20.3155 94.7533 20.4161 95.16 20.4707C95.6277 20.5323 96.0917 20.6191 96.55 20.7307C96.9982 20.8322 97.4057 21.0655 97.72 21.4007C97.8882 21.5854 98.018 21.8015 98.1021 22.0367C98.1862 22.2718 98.2229 22.5213 98.21 22.7707C98.2186 23.1164 98.1375 23.4584 97.9745 23.7634C97.8115 24.0683 97.5722 24.3258 97.28 24.5107C96.5329 24.9904 95.6574 25.231 94.77 25.2007Z" fill="#333333"/>
<path d="M108.78 24.7009C108.786 24.7364 108.784 24.7727 108.776 24.8076C108.767 24.8426 108.752 24.8754 108.73 24.9043C108.709 24.9332 108.682 24.9575 108.651 24.9758C108.62 24.9941 108.586 25.006 108.55 25.0109C108.185 25.1301 107.804 25.1942 107.42 25.2009C107.04 25.2403 106.656 25.1809 106.306 25.0285C105.955 24.8761 105.65 24.6358 105.42 24.3309C104.714 24.9382 103.8 25.2498 102.87 25.2009C102.438 25.2208 102.007 25.1501 101.604 24.9934C101.201 24.8367 100.835 24.5974 100.53 24.2909C100.227 23.9698 99.9923 23.5908 99.8393 23.1767C99.6864 22.7626 99.6187 22.3219 99.6401 21.8809V17.9709C99.6401 17.7809 99.7301 17.6809 99.9201 17.6809H101.6C101.79 17.6809 101.88 17.7809 101.88 17.9709V21.5809C101.862 22.0307 102.015 22.4705 102.31 22.8109C102.457 22.9669 102.636 23.0895 102.834 23.1706C103.032 23.2517 103.246 23.2893 103.46 23.2809C103.679 23.2905 103.898 23.2566 104.104 23.181C104.31 23.1055 104.499 22.9899 104.66 22.8409C104.812 22.6839 104.931 22.4973 105.008 22.2926C105.086 22.0879 105.12 21.8695 105.11 21.6509V17.9709C105.11 17.7809 105.2 17.6809 105.39 17.6809H107.09C107.28 17.6809 107.37 17.7809 107.37 17.9709V22.6809C107.37 23.0709 107.54 23.2609 107.87 23.2609C108.025 23.2669 108.18 23.2501 108.33 23.2109C108.368 23.2003 108.408 23.1984 108.446 23.2054C108.485 23.2123 108.521 23.2279 108.553 23.251C108.585 23.2741 108.611 23.3041 108.63 23.3387C108.648 23.3733 108.658 23.4117 108.66 23.4509L108.78 24.7009Z" fill="#333333"/>
<path d="M124.67 24.7009C124.679 24.7367 124.68 24.7741 124.673 24.8103C124.665 24.8464 124.65 24.8806 124.628 24.9102C124.606 24.9398 124.578 24.9642 124.545 24.9816C124.513 24.9991 124.477 25.0091 124.44 25.0109C124.068 25.1318 123.681 25.1959 123.29 25.2009C122.695 25.2316 122.108 25.0627 121.62 24.7209C121.409 24.5745 121.238 24.3784 121.121 24.1499C121.004 23.9214 120.945 23.6675 120.95 23.4109V21.0609C120.971 20.6125 120.821 20.1728 120.53 19.8309C120.39 19.6746 120.216 19.5514 120.023 19.4701C119.829 19.3889 119.62 19.3516 119.41 19.3609C119.221 19.3538 119.033 19.3897 118.859 19.4659C118.686 19.5421 118.533 19.6567 118.41 19.8009C118.146 20.136 118.011 20.5548 118.03 20.9809V24.6709C118.03 24.8609 117.94 24.9609 117.75 24.9609H116.06C116.021 24.9658 115.981 24.9616 115.944 24.9488C115.906 24.9359 115.872 24.9147 115.844 24.8867C115.816 24.8588 115.795 24.8248 115.782 24.7874C115.769 24.75 115.765 24.7102 115.77 24.6709V21.0609C115.792 20.6174 115.653 20.1808 115.38 19.8309C115.258 19.6839 115.105 19.5656 114.932 19.4844C114.76 19.4032 114.571 19.361 114.38 19.3609C114.176 19.3527 113.973 19.3876 113.783 19.4635C113.593 19.5393 113.422 19.6543 113.28 19.8009C112.994 20.1253 112.847 20.5491 112.87 20.9809V24.6709C112.875 24.7102 112.871 24.75 112.858 24.7874C112.845 24.8248 112.824 24.8588 112.796 24.8867C112.768 24.9147 112.734 24.9359 112.697 24.9488C112.659 24.9616 112.619 24.9658 112.58 24.9609H110.95C110.76 24.9609 110.67 24.8609 110.67 24.6709V19.9609C110.682 19.8807 110.675 19.7989 110.649 19.7219C110.624 19.645 110.581 19.575 110.523 19.5177C110.466 19.4604 110.396 19.4173 110.319 19.3918C110.242 19.3663 110.16 19.3592 110.08 19.3709H109.75C109.53 19.3709 109.42 19.2909 109.42 19.1309V17.9509C109.415 17.8779 109.435 17.8053 109.477 17.7453C109.519 17.6852 109.58 17.6413 109.65 17.6209C109.996 17.4952 110.362 17.4342 110.73 17.4409C111.083 17.4108 111.438 17.4812 111.753 17.644C112.068 17.8068 112.33 18.0553 112.51 18.3609C112.847 18.0412 113.247 17.7944 113.684 17.6361C114.121 17.4778 114.586 17.4114 115.05 17.4409C115.501 17.4189 115.95 17.5034 116.362 17.6876C116.774 17.8718 117.136 18.1504 117.42 18.5009C117.751 18.1412 118.158 17.8596 118.611 17.6762C119.064 17.4929 119.552 17.4126 120.04 17.4409C120.476 17.4205 120.912 17.4908 121.32 17.6475C121.728 17.8041 122.099 18.0436 122.41 18.3509C122.714 18.6714 122.949 19.0503 123.102 19.4646C123.255 19.8788 123.323 20.3199 123.3 20.7609V22.6909C123.3 23.0709 123.47 23.2609 123.79 23.2609C123.945 23.2681 124.1 23.2513 124.25 23.2109C124.457 23.2109 124.567 23.2909 124.58 23.4509L124.67 24.7009Z" fill="#333333"/>
<path d="M7.41 16.3808C8.14777 13.4155 9.85643 10.7822 12.2639 8.90033C14.6714 7.01843 17.6393 5.99609 20.695 5.99609C23.7507 5.99609 26.7186 7.01843 29.1261 8.90033C31.5336 10.7822 33.2422 13.4155 33.98 16.3808H32.78C30.7557 16.351 28.7729 16.956 27.11 18.1108C27.014 18.1803 26.9138 18.2438 26.81 18.3008H26.67C26.5662 18.2438 26.466 18.1803 26.37 18.1108C24.6924 16.9827 22.7166 16.3802 20.695 16.3802C18.6734 16.3802 16.6976 16.9827 15.02 18.1108C14.924 18.1803 14.8238 18.2438 14.72 18.3008H14.58C14.4762 18.2438 14.376 18.1803 14.28 18.1108C12.6171 16.956 10.6343 16.351 8.61 16.3808H7.41ZM30.62 22.6508C31.236 22.1711 31.9995 21.9201 32.78 21.9408H34.39V18.7308H32.78C31.4052 18.7142 30.0619 19.1421 28.95 19.9508C28.3243 20.4121 27.5674 20.661 26.79 20.661C26.0126 20.661 25.2557 20.4121 24.63 19.9508C23.4899 19.1572 22.1341 18.7317 20.745 18.7317C19.3559 18.7317 18.0001 19.1572 16.86 19.9508C16.2343 20.4121 15.4774 20.661 14.7 20.661C13.9226 20.661 13.1657 20.4121 12.54 19.9508C11.4144 19.1317 10.0518 18.7033 8.66 18.7308H7V21.9408H8.61C9.39051 21.9201 10.154 22.1711 10.77 22.6508C11.908 23.445 13.2623 23.8708 14.65 23.8708C16.0377 23.8708 17.392 23.445 18.53 22.6508C19.1468 22.1726 19.9097 21.9218 20.69 21.9408C21.4708 21.9184 22.2348 22.1696 22.85 22.6508C23.9901 23.4445 25.3459 23.8699 26.735 23.8699C28.1241 23.8699 29.4799 23.4445 30.62 22.6508ZM30.62 28.3908C31.236 27.9111 31.9995 27.6601 32.78 27.6808H34.39V24.4708H32.78C31.4052 24.4542 30.0619 24.8821 28.95 25.6908C28.3243 26.1521 27.5674 26.401 26.79 26.401C26.0126 26.401 25.2557 26.1521 24.63 25.6908C23.4899 24.8972 22.1341 24.4718 20.745 24.4718C19.3559 24.4718 18.0001 24.8972 16.86 25.6908C16.2343 26.1521 15.4774 26.401 14.7 26.401C13.9226 26.401 13.1657 26.1521 12.54 25.6908C11.4144 24.8718 10.0518 24.4433 8.66 24.4708H7V27.6808H8.61C9.39051 27.6601 10.154 27.9111 10.77 28.3908C11.908 29.185 13.2623 29.6108 14.65 29.6108C16.0377 29.6108 17.392 29.185 18.53 28.3908C19.1468 27.9126 19.9097 27.6618 20.69 27.6808C21.4708 27.6584 22.2348 27.9096 22.85 28.3908C23.9901 29.1845 25.3459 29.6099 26.735 29.6099C28.1241 29.6099 29.4799 29.1845 30.62 28.3908Z" fill="#333333"/>
</svg>
