<svg width="105" height="40" viewBox="0 0 105 40" fill="none" xmlns="http://www.w3.org/2000/svg">
<g clip-path="url(#clip0_6236_3660)">
<path d="M48.136 35.2341H50.8704V24.9198H48.136V35.2341ZM48.136 23.3113H50.8704V20.8584H48.136V23.3113Z" fill="#333333"/>
<path d="M52.6323 38.612H55.3667V34.0681H55.407C55.99 34.9527 56.935 35.5358 58.3826 35.5358C61.0366 35.5358 62.8461 33.4247 62.8461 30.0871C62.8461 26.8701 61.0969 24.6384 58.3625 24.6384C56.9551 24.6384 55.99 25.3019 55.3265 26.2066H55.2662V24.9199H52.6323V38.612ZM57.7996 33.2638C56.171 33.2638 55.3064 32.0374 55.3064 30.1675C55.3064 28.3178 55.99 26.85 57.699 26.85C59.3879 26.85 60.0715 28.2172 60.0715 30.1675C60.0715 32.1178 59.1869 33.2638 57.7996 33.2638Z" fill="#333333"/>
<path d="M68.3006 35.5358C70.8741 35.5358 72.6434 34.2892 72.6434 32.2183C72.6434 29.8056 70.7334 29.3231 69.0043 28.9612C67.5365 28.6596 66.1693 28.5791 66.1693 27.6945C66.1693 26.9506 66.873 26.5484 67.9387 26.5484C69.1048 26.5484 69.8085 26.9506 69.9291 28.0564H72.4022C72.2011 25.9855 70.6932 24.6384 67.9789 24.6384C65.6265 24.6384 63.7767 25.704 63.7767 27.9357C63.7767 30.1876 65.5863 30.6903 67.436 31.0522C68.8434 31.3336 70.1503 31.4342 70.1503 32.4194C70.1503 33.1432 69.4667 33.6056 68.2603 33.6056C67.0339 33.6056 66.1894 33.0829 66.0085 31.8966H63.4751C63.636 34.0882 65.3048 35.5358 68.3006 35.5358Z" fill="#333333"/>
<path d="M83.0252 35.2342V24.9199H80.2908V30.8712C80.2908 32.2384 79.5067 33.2035 78.2199 33.2035C77.0538 33.2035 76.5109 32.54 76.5109 31.3336V24.9199H73.7966V31.7961C73.7966 34.0479 75.0834 35.5157 77.3755 35.5157C78.8231 35.5157 79.6273 34.9728 80.3311 34.0278H80.3914V35.2342H83.0252Z" fill="#333333"/>
<path d="M84.7939 35.2342H87.5284V29.2426C87.5284 27.8754 88.2723 26.9908 89.3781 26.9908C90.3834 26.9908 90.9665 27.5939 90.9665 28.7601V35.2342H93.7009V29.2426C93.7009 27.8754 94.4046 26.9908 95.5506 26.9908C96.5559 26.9908 97.139 27.5939 97.139 28.7601V35.2342H99.8734V28.2977C99.8734 26.0458 98.6469 24.6384 96.4755 24.6384C95.1686 24.6384 94.0829 25.322 93.3792 26.4479H93.339C92.8363 25.3622 91.7908 24.6384 90.4839 24.6384C89.0564 24.6384 88.0511 25.3622 87.4881 26.3072H87.4278V24.9199H84.7939V35.2342Z" fill="#333333"/>
<path d="M48.1763 17.5681H50.9107V3.19238H48.1763V17.5681Z" fill="#333333"/>
<path d="M57.5967 17.8698C60.7936 17.8698 62.9851 15.4973 62.9851 12.4211C62.9851 9.3449 60.7936 6.97241 57.5967 6.97241C54.3999 6.97241 52.2083 9.3449 52.2083 12.4211C52.2083 15.4973 54.3999 17.8698 57.5967 17.8698ZM57.5967 15.7788C55.9078 15.7788 54.983 14.4317 54.983 12.4211C54.983 10.4105 55.9078 9.04332 57.5967 9.04332C59.2655 9.04332 60.2105 10.4105 60.2105 12.4211C60.2105 14.4317 59.2655 15.7788 57.5967 15.7788Z" fill="#333333"/>
<path d="M68.8 21.0868C70.3281 21.0868 71.6551 20.7249 72.5196 19.9206C73.2836 19.2169 73.7461 18.2317 73.7461 16.7841V7.25389H71.1122V8.33961H71.072C70.4487 7.47505 69.5037 6.97241 68.2169 6.97241C65.6032 6.97241 63.7534 8.94279 63.7534 12.019C63.7534 15.1354 66.0053 16.9449 68.2974 16.9449C69.6043 16.9449 70.3884 16.4222 70.9916 15.7386H71.0519V16.8645C71.0519 18.2719 70.308 19.0158 68.7598 19.0158C67.4931 19.0158 66.9101 18.5132 66.6889 17.8698H63.9746C64.2561 19.8804 65.9852 21.0868 68.8 21.0868ZM68.7598 14.7534C67.3524 14.7534 66.4275 13.728 66.4275 11.9788C66.4275 10.2497 67.3524 9.16395 68.7397 9.16395C70.3884 9.16395 71.1926 10.4507 71.1926 11.9587C71.1926 13.4867 70.4889 14.7534 68.7598 14.7534Z" fill="#333333"/>
<path d="M80.3926 17.8698C83.5894 17.8698 85.781 15.4973 85.781 12.4211C85.781 9.3449 83.5894 6.97241 80.3926 6.97241C77.1958 6.97241 75.0042 9.3449 75.0042 12.4211C75.0042 15.4973 77.1958 17.8698 80.3926 17.8698ZM80.3926 15.7788C78.7037 15.7788 77.7788 14.4317 77.7788 12.4211C77.7788 10.4105 78.7037 9.04332 80.3926 9.04332C82.0614 9.04332 83.0064 10.4105 83.0064 12.4211C83.0064 14.4317 82.0614 15.7788 80.3926 15.7788Z" fill="#333333"/>
<path d="M88.178 13.6273H100V11.2749H88.178V13.6273Z" fill="#333333"/>
<path d="M100.867 23.1679C100.867 22.7052 101.242 22.3301 101.705 22.3301H103.38C103.843 22.3301 104.218 22.7052 104.218 23.1679C104.218 23.6305 103.843 24.0056 103.38 24.0056H101.705C101.242 24.0056 100.867 23.6305 100.867 23.1679Z" fill="#333333"/>
<path fill-rule="evenodd" clip-rule="evenodd" d="M20.5215 -0.00390625C31.5672 -0.00390625 40.5215 8.95039 40.5215 19.9961C40.5215 31.0418 31.5672 39.9961 20.5215 39.9961C9.47579 39.9961 0.521484 31.0418 0.521484 19.9961C0.521484 8.95039 9.47579 -0.00390625 20.5215 -0.00390625ZM19.7986 1.49268C17.517 1.81378 15.3444 3.64717 13.6579 6.71349C13.1687 7.60292 12.7273 8.58555 12.3426 9.64653C14.6358 9.07026 17.1549 8.73051 19.7986 8.67796V1.49268ZM10.6523 10.1269C11.1306 8.62567 11.7158 7.24449 12.3911 6.01674C13.2271 4.49668 14.2193 3.18404 15.3372 2.17586C9.25828 3.94132 4.46671 8.73288 2.70126 14.8118C3.70943 13.6939 5.02208 12.7017 6.54214 11.8657C7.76989 11.1904 9.15106 10.6052 10.6523 10.1269ZM10.1719 11.8172C9.59565 14.1104 9.25591 16.6295 9.20336 19.2732H2.01807C2.33918 16.9915 4.17257 14.8189 7.23889 13.1325C8.12832 12.6433 9.11095 12.2019 10.1719 11.8172ZM10.6495 19.2732C10.7092 16.3881 11.1245 13.6795 11.8117 11.2863C14.2049 10.5991 16.9136 10.1837 19.7986 10.124V13.2469C18.7223 16.0023 16.5271 18.1973 13.7716 19.2732H10.6495ZM9.20336 20.719H2.01807C2.33918 23.0007 4.17257 25.1732 7.23889 26.8597C8.12832 27.3489 9.11095 27.7903 10.1719 28.175C9.59565 25.8818 9.25591 23.3627 9.20336 20.719ZM11.8117 28.7059C11.1245 26.3127 10.7092 23.6041 10.6495 20.719H13.7716C16.5271 21.7949 18.7224 23.9899 19.7986 26.7453V29.8682C16.9136 29.8085 14.2049 29.3931 11.8117 28.7059ZM10.6523 29.8653C9.15106 29.387 7.76989 28.8018 6.54214 28.1265C5.02208 27.2905 3.70943 26.2983 2.70126 25.1804C4.46671 31.2593 9.25828 36.0509 15.3372 37.8163C14.2193 36.8081 13.2271 35.4955 12.3911 33.9754C11.7158 32.7477 11.1306 31.3665 10.6523 29.8653ZM19.7986 38.4995C17.517 38.1784 15.3444 36.345 13.6579 33.2787C13.1687 32.3893 12.7273 31.4066 12.3426 30.3457C14.6358 30.9219 17.1549 31.2617 19.7986 31.3142V38.4995ZM25.7058 37.8163C26.8237 36.8081 27.8159 35.4955 28.652 33.9754C29.3272 32.7477 29.9124 31.3665 30.3907 29.8653C31.8919 29.387 33.2731 28.8018 34.5009 28.1265C36.0209 27.2905 37.3336 26.2983 38.3417 25.1804C36.5763 31.2593 31.7847 36.0509 25.7058 37.8163ZM28.7004 30.3457C28.3157 31.4066 27.8743 32.3893 27.3851 33.2787C25.6987 36.345 23.5261 38.1784 21.2444 38.4995V31.3142C23.8881 31.2617 26.4072 30.9219 28.7004 30.3457ZM30.8711 28.175C31.932 27.7903 32.9147 27.3489 33.8041 26.8597C36.8704 25.1732 38.7038 23.0007 39.0249 20.719H31.8396C31.7871 23.3627 31.4473 25.8818 30.8711 28.175ZM30.3936 20.719C30.3339 23.6041 29.9185 26.3127 29.2313 28.7059C26.8381 29.3931 24.1295 29.8085 21.2444 29.8682V26.7476C22.3203 23.9912 24.516 21.7952 27.2723 20.719H30.3936ZM31.8396 19.2732H39.0249C38.7038 16.9915 36.8704 14.8189 33.8041 13.1325C32.9147 12.6433 31.932 12.2019 30.8711 11.8172C31.4473 14.1104 31.7871 16.6295 31.8396 19.2732ZM29.2313 11.2863C29.9185 13.6795 30.3339 16.3881 30.3936 19.2732H27.2723C24.516 18.197 22.3203 16.001 21.2444 13.2446V10.124C24.1295 10.1837 26.8381 10.5991 29.2313 11.2863ZM30.3907 10.1269C31.8919 10.6052 33.2731 11.1904 34.5009 11.8657C36.0209 12.7017 37.3336 13.6939 38.3417 14.8118C36.5763 8.73288 31.7847 3.94132 25.7058 2.17586C26.8237 3.18404 27.8159 4.49668 28.652 6.01674C29.3272 7.24449 29.9124 8.62567 30.3907 10.1269ZM21.2444 1.49268C23.5261 1.81378 25.6987 3.64717 27.3851 6.71349C27.8743 7.60293 28.3157 8.58555 28.7004 9.64653C26.4072 9.07026 23.8881 8.73051 21.2444 8.67796V1.49268Z" fill="#333333"/>
</g>
<defs>
<clipPath id="clip0_6236_3660">
<rect width="105" height="40" fill="white" transform="translate(0 -0.00390625)"/>
</clipPath>
</defs>
</svg>
