<svg width="14" height="14" viewBox="0 0 14 14" fill="none" xmlns="http://www.w3.org/2000/svg">
<path d="M7.01562 3.38672C8.98438 3.38672 10.6094 5.01172 10.6094 6.98047C10.6094 8.98047 8.98438 10.5742 7.01562 10.5742C5.01562 10.5742 3.42188 8.98047 3.42188 6.98047C3.42188 5.01172 5.01562 3.38672 7.01562 3.38672ZM7.01562 9.32422C8.29688 9.32422 9.32812 8.29297 9.32812 6.98047C9.32812 5.69922 8.29688 4.66797 7.01562 4.66797C5.70312 4.66797 4.67188 5.69922 4.67188 6.98047C4.67188 8.29297 5.73438 9.32422 7.01562 9.32422ZM11.5781 3.26172C11.5781 2.79297 11.2031 2.41797 10.7344 2.41797C10.2656 2.41797 9.89062 2.79297 9.89062 3.26172C9.89062 3.73047 10.2656 4.10547 10.7344 4.10547C11.2031 4.10547 11.5781 3.73047 11.5781 3.26172ZM13.9531 4.10547C14.0156 5.26172 14.0156 8.73047 13.9531 9.88672C13.8906 11.0117 13.6406 11.9805 12.8281 12.8242C12.0156 13.6367 11.0156 13.8867 9.89062 13.9492C8.73438 14.0117 5.26562 14.0117 4.10938 13.9492C2.98438 13.8867 2.01562 13.6367 1.17188 12.8242C0.359375 11.9805 0.109375 11.0117 0.046875 9.88672C-0.015625 8.73047 -0.015625 5.26172 0.046875 4.10547C0.109375 2.98047 0.359375 1.98047 1.17188 1.16797C2.01562 0.355469 2.98438 0.105469 4.10938 0.0429688C5.26562 -0.0195312 8.73438 -0.0195312 9.89062 0.0429688C11.0156 0.105469 12.0156 0.355469 12.8281 1.16797C13.6406 1.98047 13.8906 2.98047 13.9531 4.10547ZM12.4531 11.1055C12.8281 10.1992 12.7344 8.01172 12.7344 6.98047C12.7344 5.98047 12.8281 3.79297 12.4531 2.85547C12.2031 2.26172 11.7344 1.76172 11.1406 1.54297C10.2031 1.16797 8.01562 1.26172 7.01562 1.26172C5.98438 1.26172 3.79688 1.16797 2.89062 1.54297C2.26562 1.79297 1.79688 2.26172 1.54688 2.85547C1.17188 3.79297 1.26562 5.98047 1.26562 6.98047C1.26562 8.01172 1.17188 10.1992 1.54688 11.1055C1.79688 11.7305 2.26562 12.1992 2.89062 12.4492C3.79688 12.8242 5.98438 12.7305 7.01562 12.7305C8.01562 12.7305 10.2031 12.8242 11.1406 12.4492C11.7344 12.1992 12.2344 11.7305 12.4531 11.1055Z" fill="#50FFAF"/>
</svg>
