<svg width="218" height="40" viewBox="0 0 218 40" fill="none" xmlns="http://www.w3.org/2000/svg">
<g clip-path="url(#clip0_6236_3645)">
<path d="M122.355 29.5199H127.018V11.9313H122.355V29.5199ZM122.355 9.18848H127.018V5.00562H122.355V9.18848Z" fill="#333333"/>
<path d="M130.023 35.2798H134.686V27.5312H134.754C135.748 29.0398 137.36 30.0341 139.828 30.0341C144.354 30.0341 147.44 26.4341 147.44 20.7427C147.44 15.2569 144.457 11.4512 139.794 11.4512C137.394 11.4512 135.748 12.5827 134.617 14.1255H134.514V11.9312H130.023V35.2798ZM138.834 26.1598C136.057 26.1598 134.583 24.0684 134.583 20.8798C134.583 17.7255 135.748 15.2227 138.663 15.2227C141.543 15.2227 142.708 17.5541 142.708 20.8798C142.708 24.2055 141.2 26.1598 138.834 26.1598Z" fill="#333333"/>
<path d="M156.741 30.0341C161.13 30.0341 164.147 27.9084 164.147 24.3769C164.147 20.2627 160.89 19.4398 157.941 18.8227C155.438 18.3084 153.107 18.1712 153.107 16.6627C153.107 15.3941 154.307 14.7084 156.124 14.7084C158.113 14.7084 159.313 15.3941 159.518 17.2798H163.735C163.393 13.7484 160.821 11.4512 156.193 11.4512C152.181 11.4512 149.027 13.2684 149.027 17.0741C149.027 20.9141 152.113 21.7712 155.267 22.3884C157.667 22.8684 159.895 23.0398 159.895 24.7198C159.895 25.9541 158.73 26.7427 156.673 26.7427C154.581 26.7427 153.141 25.8512 152.833 23.8284H148.513C148.787 27.5655 151.633 30.0341 156.741 30.0341Z" fill="#333333"/>
<path d="M181.85 29.52V11.9314H177.187V22.08C177.187 24.4114 175.85 26.0571 173.656 26.0571C171.667 26.0571 170.742 24.9257 170.742 22.8686V11.9314H166.113V23.6571C166.113 27.4971 168.307 30 172.216 30C174.685 30 176.056 29.0743 177.256 27.4629H177.359V29.52H181.85Z" fill="#333333"/>
<path d="M184.866 29.5198H189.529V19.3027C189.529 16.9712 190.798 15.4627 192.684 15.4627C194.398 15.4627 195.392 16.4912 195.392 18.4798V29.5198H200.055V19.3027C200.055 16.9712 201.255 15.4627 203.209 15.4627C204.924 15.4627 205.918 16.4912 205.918 18.4798V29.5198H210.581V17.6912C210.581 13.8512 208.489 11.4512 204.786 11.4512C202.558 11.4512 200.706 12.6169 199.506 14.5369H199.438C198.581 12.6855 196.798 11.4512 194.569 11.4512C192.135 11.4512 190.421 12.6855 189.461 14.2969H189.358V11.9312H184.866V29.5198Z" fill="#333333"/>
<path d="M0.824219 29.5199H5.48707V5.00562H0.824219V29.5199Z" fill="#333333"/>
<path d="M16.8883 30.0341C22.3397 30.0341 26.0768 25.9884 26.0768 20.7427C26.0768 15.4969 22.3397 11.4512 16.8883 11.4512C11.4368 11.4512 7.69971 15.4969 7.69971 20.7427C7.69971 25.9884 11.4368 30.0341 16.8883 30.0341ZM16.8883 26.4684C14.0083 26.4684 12.4311 24.1712 12.4311 20.7427C12.4311 17.3141 14.0083 14.9827 16.8883 14.9827C19.734 14.9827 21.3454 17.3141 21.3454 20.7427C21.3454 24.1712 19.734 26.4684 16.8883 26.4684Z" fill="#333333"/>
<path d="M35.9929 35.5198C38.5986 35.5198 40.8615 34.9027 42.3357 33.5312C43.6386 32.3312 44.4272 30.6512 44.4272 28.1827V11.9312H39.9358V13.7827H39.8672C38.8043 12.3084 37.1929 11.4512 34.9986 11.4512C30.5415 11.4512 27.3872 14.8112 27.3872 20.0569C27.3872 25.3712 31.2272 28.4569 35.1358 28.4569C37.3643 28.4569 38.7015 27.5655 39.73 26.3998H39.8329V28.3198C39.8329 30.7198 38.5643 31.9884 35.9243 31.9884C33.7643 31.9884 32.77 31.1312 32.3929 30.0341H27.7643C28.2443 33.4627 31.1929 35.5198 35.9929 35.5198ZM35.9243 24.7198C33.5243 24.7198 31.9472 22.9712 31.9472 19.9884C31.9472 17.0398 33.5243 15.1884 35.89 15.1884C38.7015 15.1884 40.0729 17.3827 40.0729 19.9541C40.0729 22.5598 38.8729 24.7198 35.9243 24.7198Z" fill="#333333"/>
<path d="M55.7611 30.0341C61.2125 30.0341 64.9497 25.9884 64.9497 20.7427C64.9497 15.4969 61.2125 11.4512 55.7611 11.4512C50.3097 11.4512 46.5725 15.4969 46.5725 20.7427C46.5725 25.9884 50.3097 30.0341 55.7611 30.0341ZM55.7611 26.4684C52.8811 26.4684 51.304 24.1712 51.304 20.7427C51.304 17.3141 52.8811 14.9827 55.7611 14.9827C58.6068 14.9827 60.2183 17.3141 60.2183 20.7427C60.2183 24.1712 58.6068 26.4684 55.7611 26.4684Z" fill="#333333"/>
<path d="M212.275 9.0438C212.275 8.25482 212.915 7.61523 213.704 7.61523H216.561C217.35 7.61523 217.99 8.25482 217.99 9.0438C217.99 9.83278 217.35 10.4724 216.561 10.4724H213.704C212.915 10.4724 212.275 9.83278 212.275 9.0438Z" fill="#333333"/>
<path fill-rule="evenodd" clip-rule="evenodd" d="M93.2278 -0.00390625C104.273 -0.00390625 113.228 8.9504 113.228 19.9961C113.228 31.0418 104.273 39.9961 93.2278 39.9961C82.1821 39.9961 73.2278 31.0418 73.2278 19.9961C73.2278 8.9504 82.1821 -0.00390625 93.2278 -0.00390625ZM92.5049 1.49268C90.2232 1.81378 88.0506 3.64717 86.3641 6.71349C85.8749 7.60292 85.4335 8.58555 85.0489 9.64653C87.3421 9.07026 89.8612 8.73051 92.5049 8.67796V1.49268ZM83.3585 10.1269C83.8369 8.62567 84.422 7.24449 85.0973 6.01674C85.9333 4.49668 86.9255 3.18404 88.0434 2.17586C81.9645 3.94132 77.173 8.73288 75.4075 14.8118C76.4157 13.6939 77.7283 12.7017 79.2484 11.8657C80.4762 11.1904 81.8573 10.6052 83.3585 10.1269ZM82.8782 11.8172C82.3019 14.1104 81.9622 16.6295 81.9096 19.2732H74.7243C75.0454 16.9915 76.8788 14.8189 79.9452 13.1325C80.8346 12.6433 81.8172 12.2019 82.8782 11.8172ZM83.3557 19.2732C83.4154 16.3881 83.8308 13.6795 84.518 11.2863C86.9112 10.5991 89.6198 10.1837 92.5049 10.124V13.2469C91.4286 16.0023 89.2334 18.1973 86.4779 19.2732H83.3557ZM81.9096 20.719H74.7243C75.0454 23.0007 76.8788 25.1732 79.9452 26.8597C80.8346 27.3489 81.8172 27.7903 82.8782 28.175C82.3019 25.8818 81.9622 23.3627 81.9096 20.719ZM84.518 28.7059C83.8308 26.3127 83.4154 23.6041 83.3557 20.719H86.4779C89.2334 21.7949 91.4286 23.9899 92.5049 26.7453V29.8682C89.6198 29.8085 86.9112 29.3931 84.518 28.7059ZM83.3585 29.8653C81.8573 29.387 80.4762 28.8018 79.2484 28.1265C77.7283 27.2905 76.4157 26.2983 75.4075 25.1804C77.173 31.2593 81.9645 36.0509 88.0434 37.8163C86.9255 36.8081 85.9333 35.4955 85.0973 33.9754C84.422 32.7477 83.8369 31.3665 83.3585 29.8653ZM92.5049 38.4995C90.2232 38.1784 88.0506 36.345 86.3641 33.2787C85.8749 32.3893 85.4335 31.4066 85.0489 30.3457C87.3421 30.9219 89.8612 31.2617 92.5049 31.3142V38.4995ZM98.4121 37.8163C99.53 36.8081 100.522 35.4955 101.358 33.9754C102.033 32.7477 102.619 31.3665 103.097 29.8653C104.598 29.387 105.979 28.8018 107.207 28.1265C108.727 27.2905 110.04 26.2983 111.048 25.1804C109.282 31.2593 104.491 36.0509 98.4121 37.8163ZM101.407 30.3457C101.022 31.4066 100.58 32.3893 100.091 33.2787C98.4049 36.345 96.2323 38.1784 93.9506 38.4995V31.3142C96.5943 31.2617 99.1134 30.9219 101.407 30.3457ZM103.577 28.175C104.638 27.7903 105.621 27.3489 106.51 26.8597C109.577 25.1733 111.41 23.0007 111.731 20.719H104.546C104.493 23.3627 104.153 25.8818 103.577 28.175ZM103.1 20.719C103.04 23.6041 102.625 26.3127 101.937 28.7059C99.5443 29.3931 96.8357 29.8085 93.9506 29.8682V26.7476C95.0266 23.9912 97.2223 21.7952 99.9785 20.719H103.1ZM104.546 19.2732H111.731C111.41 16.9915 109.577 14.8189 106.51 13.1325C105.621 12.6433 104.638 12.2019 103.577 11.8172C104.153 14.1104 104.493 16.6295 104.546 19.2732ZM101.937 11.2863C102.625 13.6795 103.04 16.3881 103.1 19.2732H99.9786C97.2223 18.197 95.0266 16.001 93.9506 13.2446V10.124C96.8357 10.1837 99.5443 10.5991 101.937 11.2863ZM103.097 10.1269C104.598 10.6052 105.979 11.1904 107.207 11.8657C108.727 12.7017 110.04 13.6939 111.048 14.8118C109.282 8.73288 104.491 3.94132 98.4121 2.17586C99.53 3.18404 100.522 4.49668 101.358 6.01674C102.033 7.24449 102.619 8.62567 103.097 10.1269ZM93.9506 1.49268C96.2323 1.81378 98.4049 3.64717 100.091 6.71349C100.58 7.60293 101.022 8.58555 101.407 9.64653C99.1134 9.07026 96.5943 8.73051 93.9506 8.67796V1.49268Z" fill="#333333"/>
</g>
<defs>
<clipPath id="clip0_6236_3645">
<rect width="218" height="40" fill="white" transform="translate(0 -0.00390625)"/>
</clipPath>
</defs>
</svg>
