<svg width="132" height="40" viewBox="0 0 132 40" fill="none" xmlns="http://www.w3.org/2000/svg">
<path d="M23.23 11.3861H25.23V25.3061H31.23V27.3061H23.23V11.3861ZM37.46 11.3861C38.6467 11.3861 39.8067 11.738 40.7934 12.3973C41.7801 13.0566 42.5492 13.9936 43.0033 15.09C43.4574 16.1864 43.5762 17.3928 43.3447 18.5566C43.1132 19.7205 42.5418 20.7896 41.7026 21.6287C40.8635 22.4679 39.7944 23.0393 38.6305 23.2708C37.4667 23.5023 36.2603 23.3835 35.1639 22.9294C34.0675 22.4752 33.1305 21.7062 32.4712 20.7195C31.8119 19.7328 31.46 18.5728 31.46 17.3861C31.46 16.5982 31.6152 15.8179 31.9167 15.09C32.2182 14.362 32.6602 13.7006 33.2174 13.1435C33.7745 12.5863 34.4359 12.1443 35.1639 11.8428C35.8918 11.5413 36.6721 11.3861 37.46 11.3861ZM37.46 21.3861C38.2511 21.3861 39.0245 21.1515 39.6823 20.712C40.3401 20.2724 40.8528 19.6477 41.1555 18.9168C41.4583 18.1859 41.5375 17.3817 41.3831 16.6057C41.2288 15.8298 40.8478 15.1171 40.2884 14.5577C39.729 13.9983 39.0163 13.6173 38.2404 13.463C37.4644 13.3086 36.6602 13.3878 35.9293 13.6906C35.1984 13.9933 34.5736 14.506 34.1341 15.1638C33.6946 15.8216 33.46 16.595 33.46 17.3861C33.4653 18.4435 33.889 19.4558 34.6386 20.2016C35.3882 20.9474 36.4026 21.3661 37.46 21.3661V21.3861ZM33.46 25.3261H41.46V27.3261H33.46V25.3261ZM59.06 27.3261H57.06V25.8961C55.7702 26.7989 54.2344 27.2841 52.66 27.2861C51.3175 27.2951 49.9943 26.9661 48.8124 26.3294C47.6304 25.6926 46.6277 24.7687 45.8967 23.6427C45.1656 22.5167 44.7296 21.2248 44.629 19.886C44.5283 18.5473 44.7662 17.2047 45.3207 15.9821C45.8752 14.7594 46.7285 13.6959 47.8019 12.8897C48.8754 12.0834 50.1345 11.5602 51.4632 11.3684C52.792 11.1765 54.1477 11.3222 55.4053 11.7919C56.663 12.2616 57.7823 13.0402 58.66 14.0561L57.19 15.3661C56.5224 14.6197 55.6787 14.0523 54.7356 13.7156C53.7926 13.3788 52.7803 13.2834 51.791 13.4381C50.8016 13.5928 49.8668 13.9927 49.0715 14.6012C48.2763 15.2098 47.646 16.0076 47.2382 16.9222C46.8303 17.8367 46.6578 18.8387 46.7364 19.837C46.815 20.8353 47.1421 21.798 47.6881 22.6374C48.2341 23.4768 48.9814 24.1663 49.8621 24.6429C50.7427 25.1195 51.7287 25.3681 52.73 25.3661C53.561 25.3678 54.3826 25.19 55.1386 24.8448C55.8945 24.4996 56.567 23.9952 57.11 23.3661H51.71V21.3661H59.08L59.06 27.3261ZM66.42 11.4261C67.6067 11.4261 68.7667 11.778 69.7534 12.4373C70.7401 13.0966 71.5092 14.0336 71.9633 15.13C72.4174 16.2264 72.5362 17.4328 72.3047 18.5966C72.0732 19.7605 71.5018 20.8296 70.6626 21.6687C69.8235 22.5079 68.7544 23.0793 67.5905 23.3108C66.4267 23.5423 65.2203 23.4235 64.1239 22.9694C63.0275 22.5152 62.0905 21.7462 61.4312 20.7595C60.7719 19.7728 60.42 18.6128 60.42 17.4261C60.4147 16.6331 60.5667 15.847 60.8671 15.1131C61.1675 14.3792 61.6104 13.7121 62.1702 13.1505C62.73 12.5888 63.3956 12.1437 64.1285 11.8408C64.8614 11.538 65.647 11.3834 66.44 11.3861L66.42 11.4261ZM66.42 21.4261C67.2111 21.4261 67.9845 21.1915 68.6423 20.752C69.3001 20.3124 69.8128 19.6877 70.1155 18.9568C70.4183 18.2259 70.4975 17.4217 70.3431 16.6457C70.1888 15.8698 69.8078 15.1571 69.2484 14.5977C68.689 14.0383 67.9763 13.6573 67.2004 13.503C66.4244 13.3486 65.6202 13.4278 64.8893 13.7306C64.1584 14.0333 63.5336 14.546 63.0941 15.2038C62.6546 15.8616 62.42 16.635 62.42 17.4261C62.4358 18.48 62.8669 19.4851 63.6197 20.2229C64.3724 20.9606 65.386 21.3715 66.44 21.3661L66.42 21.4261ZM62.42 25.3661H70.42V27.3661H62.42V25.3661ZM74.55 11.3861H76.55V27.2861H74.55V11.3861ZM79.32 11.3861H81.32C81.423 11.3752 81.5269 11.3752 81.63 11.3861C82.4676 11.2952 83.315 11.3818 84.1169 11.6401C84.9188 11.8985 85.6574 12.3228 86.2844 12.8855C86.9115 13.4482 87.413 14.1367 87.7563 14.9061C88.0997 15.6755 88.2771 16.5086 88.2771 17.3511C88.2771 18.1936 88.0997 19.0267 87.7563 19.7961C87.413 20.5655 86.9115 21.254 86.2844 21.8167C85.6574 22.3794 84.9188 22.8037 84.1169 23.0621C83.315 23.3204 82.4676 23.407 81.63 23.3161H81.32V27.3161H79.32V11.3861ZM81.32 13.3861V21.2961H81.63C82.1949 21.3713 82.7693 21.325 83.3149 21.1601C83.8604 20.9953 84.3644 20.7158 84.7931 20.3404C85.2219 19.965 85.5654 19.5023 85.8008 18.9833C86.0362 18.4643 86.158 17.901 86.158 17.3311C86.158 16.7612 86.0362 16.1979 85.8008 15.6789C85.5654 15.1599 85.2219 14.6972 84.7931 14.3218C84.3644 13.9463 83.8604 13.6669 83.3149 13.502C82.7693 13.3372 82.1949 13.2909 81.63 13.3661C81.5211 13.3774 81.4137 13.4009 81.31 13.4361L81.32 13.3861ZM95.73 12.5361L94.25 13.7061C93.9947 13.4393 93.6685 13.2509 93.3098 13.1631C92.9511 13.0753 92.5748 13.0917 92.2251 13.2104C91.8753 13.329 91.5668 13.545 91.3356 13.833C91.1044 14.121 90.9602 14.469 90.92 14.8361V14.9961C90.92 15.8761 91.53 16.4661 92.72 16.5461C97.3 16.8261 99.4 18.9761 99.4 21.8161V21.9961C99.2817 23.1201 98.8431 24.1865 98.1363 25.0685C97.4295 25.9505 96.4842 26.6108 95.413 26.9711C94.3417 27.3313 93.1895 27.3763 92.0934 27.1006C90.9973 26.825 90.0034 26.2403 89.23 25.4161L90.76 24.2361C91.1161 24.6178 91.551 24.9174 92.0345 25.1143C92.518 25.3111 93.0385 25.4005 93.56 25.3761C94.5232 25.4269 95.4687 25.1036 96.1991 24.4737C96.9296 23.8439 97.3885 22.9562 97.48 21.9961V21.8561C97.48 19.1861 94.86 18.6961 92.59 18.4761C90.49 18.2761 88.98 16.9661 88.98 15.0761V14.9961C89.054 14.0121 89.5031 13.0941 90.2344 12.4317C90.9657 11.7692 91.9235 11.4128 92.91 11.4361C93.4328 11.4207 93.9529 11.515 94.437 11.7131C94.921 11.9112 95.3581 12.2086 95.72 12.5861L95.73 12.5361ZM107.23 25.2561C109.72 25.2561 111.69 22.5661 111.69 19.2561V11.2561H113.69V19.2561C113.69 23.6561 110.81 27.2061 107.27 27.2061C103.73 27.2061 100.85 23.6561 100.85 19.2561V11.2561H102.85V19.2561C102.77 22.6161 104.74 25.3061 107.22 25.3061L107.23 25.2561ZM129.04 27.2561H127.04V17.3561L122.43 23.3561L117.82 17.3561V27.2861H115.82V11.3861L122.42 20.0761L129.02 11.3861L129.04 27.2561Z" fill="#333333"/>
<path d="M13.63 8.99615C13.63 7.55337 13.0569 6.16968 12.0367 5.14949C11.0165 4.12929 9.63278 3.55615 8.19 3.55615C6.74722 3.55615 5.36354 4.12929 4.34334 5.14949C3.32314 6.16968 2.75 7.55337 2.75 8.99615V25.4462L7.23 28.6562V36.4762H9.15V28.6562L13.63 25.4462V8.99615ZM11.71 18.1962L9.15 20.7562V18.3562L11.71 15.7962V18.1962ZM4.71 15.7962L7.27 18.3562V20.7562L4.71 18.1962V15.7962ZM11.71 13.0762L8.19 16.5962L4.67 12.9962V10.5962L8.19 14.1162L11.71 10.5962V13.0762ZM8.19 5.47615C8.96415 5.47957 9.71583 5.73668 10.3299 6.20808C10.944 6.67948 11.3866 7.33918 11.59 8.08615L8.19 11.4762L4.79 8.08615C4.98594 7.33175 5.42537 6.6631 6.04013 6.18396C6.65489 5.70481 7.41059 5.44194 8.19 5.43614V5.47615ZM4.67 24.4762V20.8762L7.23 23.4362V26.2962L4.67 24.4762ZM9.15 26.3062V23.4362L11.71 20.8762V24.4662L9.15 26.3062Z" fill="#333333"/>
</svg>
