<svg width="175" height="40" viewBox="0 0 175 40" fill="none" xmlns="http://www.w3.org/2000/svg">
<path d="M42.9362 10.7466H48.8649L45.5441 26.497C44.9344 29.4801 43.7711 31.1875 42.0075 32.3976C40.2237 33.4327 38.1754 33.9219 36.1164 33.8047C32.1952 33.8047 28.4334 32.1631 28.0582 28.1762H34.0244C34.212 29.1143 35.0751 29.649 36.3884 29.649C38.1614 29.649 38.9775 28.5796 39.3434 26.9004L39.6998 25.1649H39.5685C39.045 25.7404 38.41 26.2034 37.7021 26.5259C36.9941 26.8484 36.2281 27.0237 35.4503 27.0411C31.9982 27.0411 29.2589 24.2925 29.3152 20.2681C29.3903 15.5777 32.4484 10.2494 37.5798 10.2494C38.5522 10.1839 39.523 10.3982 40.3775 10.867C41.232 11.3357 41.9343 12.0394 42.4015 12.8948H42.5047L42.9362 10.7466ZM37.8424 22.6415C40.122 22.6415 41.3884 20.0149 41.4259 17.7541C41.4259 16.2438 40.8349 14.6959 39.0901 14.6959C36.7073 14.6959 35.4972 17.3507 35.4597 19.6302C35.4597 21.1687 36.0507 22.6415 37.7955 22.6415M104.4 23.1481C104.4 24.1518 103.536 24.5552 102.401 24.5552C100.525 24.5552 99.8968 23.6171 99.8874 22.3038H93.9869C93.8837 27.2006 98.2552 28.4107 102.139 28.4107C107.101 28.4107 110.319 26.2625 110.385 21.9755C110.385 18.5514 107.467 17.5102 104.597 16.8441C102.392 16.3376 101.426 15.9717 101.435 15.1368C101.445 14.3019 102.43 13.9642 103.396 13.9642C104.606 13.9642 105.431 14.3957 105.516 15.5027H111.248C111.182 11.4126 107.495 10.2119 103.743 10.2119C99.1839 10.2119 95.6285 12.285 95.5722 16.2062C95.5722 19.2925 97.6548 20.4276 100.797 21.2344C102.814 21.7691 104.418 21.9379 104.4 23.1481ZM148.236 13.2888H148.133C147.878 12.365 147.314 11.5563 146.536 10.9966C145.758 10.437 144.812 10.1601 143.855 10.2119C141.304 10.2119 139.747 11.4783 138.274 13.392H138.171L138.715 10.7466H132.748L129.174 27.8385H135.413L137.289 18.6171C137.72 16.6096 138.743 15.2025 140.291 15.2025C141.839 15.2025 142.045 16.4407 141.726 17.9511L139.662 27.8385H145.9L147.777 18.6171C148.208 16.4783 149.231 15.2025 150.778 15.2025C152.326 15.2025 152.533 16.3751 152.214 17.9511L150.15 27.8385H156.388L158.621 17.679C159.559 13.392 158.124 10.1743 154.006 10.1743C152.86 10.1696 151.732 10.4522 150.724 10.9963C149.716 11.5404 148.861 12.3286 148.236 13.2888ZM1.14453 27.8385H7.58918L12.5704 3.87036H6.13515L1.14453 27.8385ZM20.5441 10.24C24.8968 10.24 29.0526 12.6227 28.9869 18.0167C28.9306 23.9173 24.9156 28.3357 18.7805 28.3357C14.5591 28.3357 10.3378 25.9905 10.4128 20.6246C10.516 14.8648 14.4747 10.24 20.5441 10.24ZM18.9588 24.1518C21.7074 24.1518 22.7111 20.1649 22.7111 17.8197C22.7111 16.1406 22.1952 14.4989 20.3846 14.4989C17.6642 14.4989 16.7355 18.7203 16.7355 20.8967C16.7355 22.6415 17.2233 24.1518 18.9963 24.1518M14.7186 3.87036L13.7805 8.66398H67.8987L68.8368 3.87036H14.7186ZM58.2458 10.24C62.5985 10.24 66.7542 12.6227 66.6886 18.0167C66.6323 23.9173 62.6079 28.3357 56.4728 28.3357C52.2514 28.3357 48.03 25.9905 48.1145 20.6246C48.2458 14.8648 52.2045 10.24 58.2458 10.24ZM56.6886 24.1518C59.4372 24.1518 60.4409 20.1649 60.4409 17.8197C60.4409 16.1406 59.9156 14.4989 58.1051 14.4989C55.394 14.4989 54.4559 18.7203 54.4559 20.8967C54.4559 22.6415 54.9437 24.1518 56.7261 24.1518M71.0507 3.87036L70.1126 8.66398H76.3415L77.2796 3.87036H71.0507ZM66.0601 27.8385H72.2983L75.8724 10.7466H69.5966L66.0601 27.8385ZM85.9662 28.4107C84.9734 28.4812 83.9805 28.2737 83.0989 27.8114C82.2174 27.3491 81.4821 26.6503 80.9756 25.7935H80.8724L78.9963 34.4426H72.6829L77.7486 10.7466H83.6773L83.2083 13.0261C83.8274 12.1841 84.6294 11.4934 85.5539 11.0059C86.4784 10.5185 87.5014 10.247 88.546 10.2119C92.2983 10.2119 94.5028 13.4295 94.4372 17.6134C94.3527 22.876 91.6229 28.4107 85.9287 28.4107H85.9662ZM85.7223 15.0524C83.3115 15.0524 81.8293 18.1387 81.7918 20.5121C81.7918 22.1631 82.3734 24.0017 84.3527 24.0017C86.9325 24.0017 87.9925 20.5871 88.0206 18.3075C88.0206 16.7597 87.5704 15.0524 85.7223 15.0524ZM121.792 25.1462H121.895L121.351 27.8573H127.279L130.854 10.7653H124.625L122.636 20.315C122.233 22.2944 121.013 23.3357 119.475 23.3357C117.936 23.3357 117.598 21.891 117.908 20.3807L119.925 10.7653H113.696L111.491 21.3188C110.553 25.9154 112.692 28.392 116.276 28.392C117.401 28.381 118.504 28.0735 119.472 27.5003C120.44 26.9271 121.241 26.1086 121.792 25.1274V25.1462ZM155.253 34.5271L156.191 29.7334H82.2139L81.2758 34.5271H155.253Z" fill="#333333"/>
<path d="M161.96 15.437C161.899 15.4323 161.839 15.4154 161.784 15.3873C161.728 15.3593 161.679 15.3206 161.639 15.2735C161.599 15.2264 161.569 15.1719 161.55 15.113C161.531 15.0541 161.524 14.9921 161.529 14.9304C161.607 14.095 161.508 13.2524 161.238 12.458C160.968 11.6636 160.533 10.9351 159.961 10.3205C159.39 9.70582 158.695 9.2188 157.923 8.8913C157.15 8.56381 156.317 8.40323 155.478 8.42009C155.354 8.42009 155.235 8.37068 155.147 8.28271C155.059 8.19475 155.009 8.07544 155.009 7.95104C155.009 7.82664 155.059 7.70735 155.147 7.61939C155.235 7.53142 155.354 7.482 155.478 7.482C155.703 7.49654 155.929 7.49654 156.154 7.482C157.82 7.30449 159.372 6.5517 160.543 5.35317C161.715 4.15464 162.431 2.58534 162.57 0.9154C162.58 0.797617 162.633 0.687751 162.72 0.607748C162.807 0.527746 162.921 0.48351 163.039 0.483889C163.101 0.488624 163.161 0.505512 163.216 0.533573C163.271 0.561634 163.32 0.600317 163.36 0.647398C163.401 0.69448 163.431 0.749026 163.45 0.807902C163.469 0.866778 163.476 0.928814 163.471 0.990449C163.393 1.82511 163.492 2.66686 163.761 3.46064C164.031 4.25441 164.465 4.98234 165.035 5.59684C165.606 6.21133 166.299 6.69855 167.07 7.02664C167.842 7.35473 168.674 7.51629 169.512 7.50076C169.636 7.50076 169.756 7.55019 169.844 7.63815C169.932 7.72611 169.981 7.84541 169.981 7.96981C169.981 8.09421 169.932 8.21352 169.844 8.30148C169.756 8.38944 169.636 8.43885 169.512 8.43885C167.73 8.46829 166.021 9.15483 164.714 10.3668C163.407 11.5787 162.593 13.2306 162.43 15.0055C162.42 15.1233 162.367 15.2332 162.28 15.3132C162.193 15.3932 162.079 15.4374 161.96 15.437Z" fill="#333333"/>
</svg>
