<svg width="124" height="33" viewBox="0 0 124 33" fill="none" xmlns="http://www.w3.org/2000/svg">
<path d="M36.8701 10.566H39.8701V22.696H36.8701V10.566ZM41.0601 18.116C41.0601 15.116 42.9001 13.326 45.7401 13.326C48.5801 13.326 50.4201 15.116 50.4201 18.116C50.4201 21.116 48.6201 22.916 45.7401 22.916C42.8601 22.916 41.0601 21.166 41.0601 18.116ZM47.4101 18.116C47.4101 16.466 46.7601 15.496 45.7401 15.496C44.7201 15.496 44.0801 16.496 44.0801 18.116C44.0801 19.736 44.7101 20.716 45.7401 20.716C46.7701 20.716 47.4101 19.796 47.4101 18.126V18.116ZM51.5501 23.286H54.4301C54.5672 23.5905 54.7989 23.8426 55.0908 24.0048C55.3827 24.1669 55.7192 24.2305 56.0501 24.186C57.1901 24.186 57.7901 23.566 57.7901 22.666V20.986H57.7301C57.4911 21.5009 57.1032 21.9323 56.6166 22.2247C56.13 22.517 55.5669 22.6568 55.0001 22.626C52.8101 22.626 51.3601 20.956 51.3601 18.086C51.3601 15.216 52.7401 13.406 55.0401 13.406C55.6247 13.3831 56.2023 13.5394 56.6956 13.8539C57.1889 14.1685 57.5743 14.6263 57.8001 15.166V13.496H60.8001V22.596C60.8001 24.786 58.8701 26.146 56.0201 26.146C53.3701 26.146 51.7201 24.956 51.5501 23.296V23.286ZM57.8001 18.106C57.8001 16.646 57.1301 15.726 56.0701 15.726C55.0101 15.726 54.3601 16.636 54.3601 18.106C54.3601 19.576 55.0001 20.406 56.0701 20.406C57.1401 20.406 57.8001 19.596 57.8001 18.116V18.106ZM61.9301 18.106C61.9301 15.106 63.7701 13.316 66.6101 13.316C69.4501 13.316 71.3001 15.106 71.3001 18.106C71.3001 21.106 69.5001 22.906 66.6101 22.906C63.7201 22.906 61.9301 21.166 61.9301 18.116V18.106ZM68.2801 18.106C68.2801 16.456 67.6301 15.486 66.6101 15.486C65.5901 15.486 65.0001 16.496 65.0001 18.126C65.0001 19.756 65.6301 20.726 66.6501 20.726C67.6701 20.726 68.2801 19.796 68.2801 18.126V18.106ZM72.4401 11.316C72.4322 11.0131 72.5145 10.7147 72.6764 10.4586C72.8384 10.2025 73.0727 10.0003 73.3497 9.87754C73.6267 9.75478 73.9339 9.71703 74.2324 9.76908C74.5309 9.82114 74.8072 9.96065 75.0263 10.1699C75.2455 10.3792 75.3975 10.6488 75.4632 10.9446C75.5289 11.2404 75.5053 11.549 75.3953 11.8314C75.2854 12.1137 75.0941 12.3571 74.8457 12.5306C74.5974 12.7041 74.303 12.8 74.0001 12.806C73.7993 12.8198 73.5978 12.7919 73.4083 12.7241C73.2187 12.6563 73.0453 12.5501 72.8988 12.412C72.7523 12.274 72.6359 12.1071 72.557 11.9219C72.478 11.7368 72.4382 11.5373 72.4401 11.336V11.316ZM72.4401 13.516H75.4401V22.696H72.4401V13.516ZM86.3301 18.106C86.3301 21.106 85.0001 22.816 82.7201 22.816C82.1355 22.8535 81.5534 22.7106 81.0526 22.4066C80.5518 22.1025 80.1565 21.652 79.9201 21.116H79.8601V25.636H76.8601V13.496H79.8601V15.136H79.9201C80.1455 14.5911 80.5333 14.1289 81.0307 13.8122C81.5281 13.4955 82.111 13.3397 82.7001 13.366C85.0001 13.406 86.3701 15.126 86.3701 18.126L86.3301 18.106ZM83.3301 18.106C83.3301 16.646 82.6601 15.716 81.6101 15.716C80.5601 15.716 79.8901 16.656 79.8801 18.106C79.8701 19.556 80.5601 20.486 81.6101 20.486C82.6601 20.486 83.3301 19.576 83.3301 18.126V18.106ZM91.4801 13.306C93.9701 13.306 95.4801 14.486 95.5501 16.376H92.8201C92.8201 15.726 92.2801 15.316 91.4501 15.316C90.6201 15.316 90.2501 15.636 90.2501 16.106C90.2501 16.576 90.5801 16.726 91.2501 16.866L93.1701 17.256C95.0001 17.646 95.7801 18.386 95.7801 19.776C95.7801 21.676 94.0501 22.896 91.5001 22.896C88.9501 22.896 87.2801 21.676 87.1501 19.806H90.0401C90.1301 20.486 90.6701 20.886 91.5501 20.886C92.4301 20.886 92.8301 20.596 92.8301 20.116C92.8301 19.636 92.5501 19.536 91.8301 19.386L90.1001 19.016C88.3101 18.646 87.3701 17.696 87.3701 16.296C87.3901 14.496 89.0001 13.326 91.4801 13.326V13.306ZM105.79 22.676H102.9V20.966H102.84C102.681 21.5401 102.331 22.0426 101.847 22.3901C101.363 22.7375 100.775 22.909 100.18 22.876C99.7243 22.9019 99.2683 22.8297 98.8428 22.6642C98.4173 22.4987 98.0323 22.2439 97.7138 21.9168C97.3953 21.5898 97.1506 21.1981 96.9965 20.7684C96.8423 20.3387 96.7822 19.8809 96.8201 19.426V13.496H99.8201V18.736C99.8201 19.826 100.38 20.406 101.31 20.406C101.528 20.4064 101.744 20.3603 101.943 20.2706C102.141 20.1809 102.319 20.0497 102.463 19.8859C102.606 19.722 102.714 19.5293 102.777 19.3207C102.84 19.112 102.859 18.8922 102.83 18.676V13.496H105.83L105.79 22.676ZM107.24 13.496H110.14V15.266H110.2C110.359 14.6995 110.702 14.2017 111.174 13.8507C111.646 13.4997 112.222 13.3151 112.81 13.326C113.409 13.2781 114.003 13.4572 114.476 13.8278C114.948 14.1984 115.264 14.7332 115.36 15.326H115.42C115.601 14.7269 115.977 14.2053 116.488 13.8432C116.998 13.4811 117.615 13.2991 118.24 13.326C118.648 13.3123 119.054 13.3846 119.432 13.5382C119.811 13.6917 120.152 13.9232 120.435 14.2174C120.718 14.5117 120.936 14.8622 121.075 15.2461C121.213 15.63 121.27 16.0389 121.24 16.446V22.696H118.24V17.246C118.24 16.246 117.79 15.786 116.95 15.786C116.763 15.7844 116.577 15.823 116.406 15.8992C116.235 15.9754 116.082 16.0874 115.958 16.2277C115.834 16.368 115.741 16.5332 115.686 16.7123C115.631 16.8915 115.616 17.0803 115.64 17.266V22.696H112.79V17.206C112.79 16.286 112.34 15.786 111.52 15.786C111.331 15.7861 111.143 15.8263 110.971 15.904C110.798 15.9818 110.643 16.0953 110.518 16.237C110.392 16.3787 110.298 16.5455 110.241 16.7264C110.185 16.9072 110.167 17.0979 110.19 17.286V22.696H107.19L107.24 13.496Z" fill="#333333"/>
<path d="M28.4801 11.116C27.9712 9.95235 27.2977 8.86792 26.4801 7.89599C25.2716 6.41633 23.7634 5.20938 22.0548 4.35459C20.3462 3.49981 18.4759 3.01656 16.5671 2.93665C14.6583 2.85674 12.7542 3.18198 10.9801 3.89098C9.20607 4.59997 7.60226 5.67664 6.27429 7.05012C4.94631 8.42359 3.92426 10.0627 3.27541 11.8597C2.62656 13.6566 2.36561 15.5706 2.50975 17.4756C2.6539 19.3807 3.19985 21.2336 4.11169 22.9124C5.02353 24.5913 6.28059 26.058 7.80011 27.216C8.7751 27.9739 9.85246 28.59 11.0001 29.046C12.6091 29.7054 14.3312 30.045 16.0701 30.046C19.6595 30.0381 23.0993 28.6073 25.6356 26.0673C28.1718 23.5273 29.5975 20.0854 29.6001 16.496C29.6027 14.6445 29.2214 12.8126 28.4801 11.116ZM16.0601 5.68598C17.6217 5.68582 19.1644 6.02712 20.5801 6.68598C20.2349 6.83515 19.8719 6.93934 19.5001 6.99599C18.2767 7.17308 17.1434 7.74106 16.2693 8.61516C15.3952 9.48925 14.8272 10.6226 14.6501 11.846C14.5724 12.5321 14.2603 13.1704 13.7666 13.6532C13.2729 14.136 12.6278 14.4336 11.9401 14.496C10.7167 14.6731 9.58336 15.2411 8.70927 16.1152C7.83518 16.9893 7.2672 18.1226 7.09011 19.346C7.03015 19.9984 6.7518 20.6115 6.30011 21.086C5.52076 19.4393 5.17065 17.6221 5.28237 15.8037C5.39409 13.9853 5.964 12.2247 6.93907 10.6857C7.91413 9.14678 9.26268 7.8795 10.8592 7.00183C12.4557 6.12416 14.2483 5.66463 16.0701 5.66598L16.0601 5.68598ZM7.7901 23.496C7.9101 23.386 8.03011 23.286 8.1501 23.166C9.03975 22.3035 9.61082 21.1649 9.7701 19.936C9.83468 19.2452 10.1431 18.6 10.6401 18.116C11.1184 17.6182 11.7621 17.3123 12.4501 17.256C13.6735 17.0789 14.8068 16.5109 15.6809 15.6368C16.555 14.7627 17.123 13.6294 17.3001 12.406C17.3434 11.6835 17.6534 11.0028 18.1701 10.496C18.6602 10.0078 19.31 9.71309 20.0001 9.66598C21.124 9.51135 22.1722 9.0117 23.0001 8.23599C23.9428 9.01806 24.7414 9.95888 25.3601 11.016C25.3221 11.0673 25.2785 11.1143 25.2301 11.156C24.7528 11.6582 24.1099 11.9708 23.4201 12.036C22.1954 12.21 21.0604 12.777 20.1857 13.6516C19.3111 14.5263 18.7441 15.6613 18.5701 16.886C18.4996 17.5744 18.1933 18.2173 17.7031 18.7057C17.2128 19.1942 16.5688 19.4981 15.8801 19.566C14.6531 19.7417 13.5156 20.3086 12.6364 21.1823C11.7573 22.0561 11.1834 23.1901 11.0001 24.416C10.9463 24.9047 10.7784 25.374 10.5101 25.786C9.4841 25.1768 8.5652 24.4032 7.7901 23.496ZM16.0601 27.356C15.0454 27.3571 14.0355 27.2157 13.0601 26.936C13.3938 26.314 13.6107 25.6361 13.7001 24.936C13.7702 24.2491 14.0751 23.6074 14.5633 23.1192C15.0515 22.631 15.6932 22.3261 16.3801 22.256C17.6053 22.0809 18.7409 21.5138 19.617 20.6395C20.493 19.7653 21.0625 18.6308 21.2401 17.406C21.3102 16.7191 21.6151 16.0774 22.1033 15.5892C22.5915 15.101 23.2332 14.7961 23.9201 14.726C24.8421 14.6061 25.7209 14.2628 26.4801 13.726C26.9017 15.3239 26.9516 16.9971 26.6261 18.6173C26.3006 20.2375 25.6082 21.7617 24.6022 23.0728C23.5962 24.3838 22.3033 25.4471 20.8225 26.1809C19.3418 26.9147 17.7127 27.2996 16.0601 27.306V27.356Z" fill="#333333"/>
</svg>
