<svg width="185" height="56" viewBox="0 0 185 56" fill="none" xmlns="http://www.w3.org/2000/svg">
<path d="M28.6215 20.8708L22.426 14.7299H7.80536V8H25.6796L33.2427 16.2871L28.6215 20.8708Z" fill="#F0FFF8"/>
<path d="M25.5514 48.0004H0V14.7031H7.48839V41.2706H21.8579L25.936 36.4916L13.2227 24.5363L18.6364 19.887L35.784 36.0115L25.5514 48.0004Z" fill="#F0FFF8"/>
<path d="M54.8389 9.11719V18.2429L39.189 31.133L34.1296 26.1732L54.8389 9.11719Z" fill="#F0FFF8"/>
<path d="M56 36.6204V46.1383L43.7443 35.1256L49.0387 30.3643L56 36.6204Z" fill="#F0FFF8"/>
<path d="M79.4413 45H67.0663V10.0909H79.5436C83.0549 10.0909 86.0776 10.7898 88.6117 12.1875C91.1458 13.5739 93.0947 15.5682 94.4583 18.1705C95.8333 20.7727 96.5208 23.8864 96.5208 27.5114C96.5208 31.1477 95.8333 34.2727 94.4583 36.8864C93.0947 39.5 91.1345 41.5057 88.5776 42.9034C86.0322 44.3011 82.9867 45 79.4413 45ZM74.447 38.6761H79.1345C81.3163 38.6761 83.1515 38.2898 84.6401 37.517C86.1401 36.733 87.2651 35.5227 88.0151 33.8864C88.7765 32.2386 89.1572 30.1136 89.1572 27.5114C89.1572 24.9318 88.7765 22.8239 88.0151 21.1875C87.2651 19.5511 86.1458 18.3466 84.6572 17.5739C83.1686 16.8011 81.3333 16.4148 79.1515 16.4148H74.447V38.6761ZM102.332 45V18.8182H109.593V45H102.332ZM105.98 15.4432C104.9 15.4432 103.974 15.0852 103.201 14.3693C102.44 13.642 102.059 12.7727 102.059 11.7614C102.059 10.7614 102.44 9.90341 103.201 9.1875C103.974 8.46023 104.9 8.09659 105.98 8.09659C107.059 8.09659 107.98 8.46023 108.741 9.1875C109.514 9.90341 109.9 10.7614 109.9 11.7614C109.9 12.7727 109.514 13.642 108.741 14.3693C107.98 15.0852 107.059 15.4432 105.98 15.4432ZM127.685 55.3636C125.333 55.3636 123.316 55.0398 121.634 54.392C119.964 53.7557 118.634 52.8864 117.646 51.7841C116.657 50.6818 116.015 49.4432 115.719 48.0682L122.435 47.1648C122.64 47.6875 122.964 48.1761 123.407 48.6307C123.85 49.0852 124.435 49.4489 125.163 49.7216C125.901 50.0057 126.799 50.1477 127.856 50.1477C129.435 50.1477 130.737 49.7614 131.759 48.9886C132.793 48.2273 133.31 46.9489 133.31 45.1534V40.3636H133.004C132.685 41.0909 132.208 41.7784 131.572 42.4261C130.935 43.0739 130.117 43.6023 129.117 44.0114C128.117 44.4205 126.924 44.625 125.538 44.625C123.572 44.625 121.782 44.1705 120.168 43.2614C118.566 42.3409 117.288 40.9375 116.333 39.0511C115.39 37.1534 114.918 34.7557 114.918 31.858C114.918 28.892 115.401 26.4148 116.367 24.4261C117.333 22.4375 118.617 20.9489 120.219 19.9602C121.833 18.9716 123.6 18.4773 125.521 18.4773C126.987 18.4773 128.214 18.7273 129.202 19.2273C130.191 19.7159 130.987 20.3295 131.589 21.0682C132.202 21.7955 132.674 22.5114 133.004 23.2159H133.276V18.8182H140.487V45.2557C140.487 47.483 139.941 49.3466 138.85 50.8466C137.759 52.3466 136.248 53.4716 134.316 54.2216C132.396 54.983 130.185 55.3636 127.685 55.3636ZM127.839 39.1705C129.009 39.1705 129.998 38.8807 130.805 38.3011C131.623 37.7102 132.248 36.8693 132.68 35.7784C133.123 34.6761 133.344 33.358 133.344 31.8239C133.344 30.2898 133.129 28.9602 132.697 27.8352C132.265 26.6989 131.64 25.8182 130.822 25.1932C130.004 24.5682 129.009 24.2557 127.839 24.2557C126.646 24.2557 125.64 24.5795 124.822 25.2273C124.004 25.8636 123.384 26.75 122.964 27.8864C122.543 29.0227 122.333 30.3352 122.333 31.8239C122.333 33.3352 122.543 34.642 122.964 35.7443C123.396 36.8352 124.015 37.6818 124.822 38.2841C125.64 38.875 126.646 39.1705 127.839 39.1705ZM146.745 45V18.8182H154.006V45H146.745ZM150.393 15.4432C149.313 15.4432 148.387 15.0852 147.614 14.3693C146.853 13.642 146.472 12.7727 146.472 11.7614C146.472 10.7614 146.853 9.90341 147.614 9.1875C148.387 8.46023 149.313 8.09659 150.393 8.09659C151.472 8.09659 152.393 8.46023 153.154 9.1875C153.927 9.90341 154.313 10.7614 154.313 11.7614C154.313 12.7727 153.927 13.642 153.154 14.3693C152.393 15.0852 151.472 15.4432 150.393 15.4432ZM166.371 18.8182L171.178 27.9716L176.104 18.8182H183.553L175.968 31.9091L183.758 45H176.343L171.178 35.9489L166.098 45H158.598L166.371 31.9091L158.871 18.8182H166.371Z" fill="#00C76D"/>
</svg>
