<svg width="168" height="40" viewBox="0 0 168 40" fill="none" xmlns="http://www.w3.org/2000/svg">
<path d="M0 19.9961C0 8.9504 8.95431 -0.00390625 20 -0.00390625H148C159.046 -0.00390625 168 8.9504 168 19.9961C168 31.0418 159.046 39.9961 148 39.9961H20C8.95431 39.9961 0 31.0418 0 19.9961Z" fill="#50FFAF"/>
<path d="M33.2822 8.82978L36.2374 14.9898L42.7389 15.9624C43.2845 16.0551 43.7391 16.4256 43.921 16.9814C44.1028 17.4909 43.9664 18.093 43.5572 18.4635L38.8289 23.234L39.9655 29.9962C40.0564 30.552 39.8291 31.1077 39.3745 31.432C38.9198 31.8025 38.3288 31.8025 37.8287 31.5709L32.0092 28.3751L26.1442 31.5709C25.6895 31.8025 25.0985 31.8025 24.6438 31.432C24.1892 31.1077 23.9619 30.552 24.0528 29.9962L25.144 23.234L20.4156 18.4635C20.0519 18.093 19.9155 17.4909 20.0519 16.9814C20.2337 16.4256 20.6884 16.0551 21.234 15.9624L27.7809 14.9898L30.6907 8.82978C30.918 8.32031 31.4181 7.99609 32.0092 7.99609C32.5547 7.99609 33.0549 8.32031 33.2822 8.82978Z" fill="#1A1A1A"/>
<path d="M59.2822 8.82978L62.2374 14.9898L68.7389 15.9624C69.2845 16.0551 69.7391 16.4256 69.921 16.9814C70.1028 17.4909 69.9664 18.093 69.5572 18.4635L64.8289 23.234L65.9655 29.9962C66.0564 30.552 65.8291 31.1077 65.3745 31.432C64.9198 31.8025 64.3288 31.8025 63.8287 31.5709L58.0092 28.3751L52.1442 31.5709C51.6895 31.8025 51.0985 31.8025 50.6438 31.432C50.1892 31.1077 49.9619 30.552 50.0528 29.9962L51.144 23.234L46.4156 18.4635C46.0519 18.093 45.9155 17.4909 46.0519 16.9814C46.2337 16.4256 46.6884 16.0551 47.234 15.9624L53.7809 14.9898L56.6907 8.82978C56.918 8.32031 57.4181 7.99609 58.0092 7.99609C58.5547 7.99609 59.0549 8.32031 59.2822 8.82978Z" fill="#1A1A1A"/>
<path d="M85.2822 8.82978L88.2374 14.9898L94.7389 15.9624C95.2845 16.0551 95.7391 16.4256 95.921 16.9814C96.1028 17.4909 95.9664 18.093 95.5572 18.4635L90.8289 23.234L91.9655 29.9962C92.0564 30.552 91.8291 31.1077 91.3745 31.432C90.9198 31.8025 90.3288 31.8025 89.8287 31.5709L84.0092 28.3751L78.1442 31.5709C77.6895 31.8025 77.0985 31.8025 76.6438 31.432C76.1892 31.1077 75.9619 30.552 76.0528 29.9962L77.144 23.234L72.4156 18.4635C72.0519 18.093 71.9155 17.4909 72.0519 16.9814C72.2337 16.4256 72.6884 16.0551 73.234 15.9624L79.7809 14.9898L82.6907 8.82978C82.918 8.32031 83.4181 7.99609 84.0092 7.99609C84.5547 7.99609 85.0549 8.32031 85.2822 8.82978Z" fill="#1A1A1A"/>
<path d="M111.282 8.82978L114.237 14.9898L120.739 15.9624C121.284 16.0551 121.739 16.4256 121.921 16.9814C122.103 17.4909 121.966 18.093 121.557 18.4635L116.829 23.234L117.966 29.9962C118.056 30.552 117.829 31.1077 117.374 31.432C116.92 31.8025 116.329 31.8025 115.829 31.5709L110.009 28.3751L104.144 31.5709C103.69 31.8025 103.098 31.8025 102.644 31.432C102.189 31.1077 101.962 30.552 102.053 29.9962L103.144 23.234L98.4156 18.4635C98.0519 18.093 97.9155 17.4909 98.0519 16.9814C98.2337 16.4256 98.6884 16.0551 99.234 15.9624L105.781 14.9898L108.691 8.82978C108.918 8.32031 109.418 7.99609 110.009 7.99609C110.555 7.99609 111.055 8.32031 111.282 8.82978Z" fill="#1A1A1A"/>
<path d="M137.282 8.82978L140.237 14.9898L146.739 15.9624C147.284 16.0551 147.739 16.4256 147.921 16.9814C148.103 17.4909 147.966 18.093 147.557 18.4635L142.829 23.234L143.966 29.9962C144.056 30.552 143.829 31.1077 143.374 31.432C142.92 31.8025 142.329 31.8025 141.829 31.5709L136.009 28.3751L130.144 31.5709C129.69 31.8025 129.098 31.8025 128.644 31.432C128.189 31.1077 127.962 30.552 128.053 29.9962L129.144 23.234L124.416 18.4635C124.052 18.093 123.915 17.4909 124.052 16.9814C124.234 16.4256 124.688 16.0551 125.234 15.9624L131.781 14.9898L134.691 8.82978C134.918 8.32031 135.418 7.99609 136.009 7.99609C136.555 7.99609 137.055 8.32031 137.282 8.82978Z" fill="#1A1A1A"/>
</svg>
